<svg width="61" height="61" viewBox="0 0 61 61" fill="none" xmlns="http://www.w3.org/2000/svg">
<g clip-path="url(#clip0_87_5)">
<path d="M50.6441 6.10259C50.4206 5.92545 50.1592 5.80239 49.8803 5.74302C49.6014 5.68366 49.3125 5.68961 49.0363 5.7604L19.0363 13.2604C18.631 13.3617 18.2712 13.5954 18.0139 13.9245C17.7566 14.2535 17.6166 14.6591 17.616 15.0768V40.8815C16.0517 39.8363 14.1829 39.3439 12.3067 39.4826C10.4304 39.6212 8.65435 40.3829 7.26067 41.6467C5.86699 42.9105 4.93566 44.6038 4.61468 46.4576C4.29371 48.3114 4.6015 50.2192 5.48914 51.878C6.37679 53.5368 7.79337 54.8514 9.51376 55.6127C11.2342 56.3741 13.1597 56.5387 14.9843 56.0803C16.809 55.6219 18.4281 54.5668 19.5844 53.0827C20.7406 51.5986 21.3677 49.7707 21.366 47.8893V25.9167L47.616 19.3542V33.3815C46.0517 32.3363 44.1829 31.8439 42.3067 31.9826C40.4304 32.1212 38.6544 32.8829 37.2607 34.1467C35.867 35.4105 34.9357 37.1038 34.6147 38.9576C34.2937 40.8114 34.6015 42.7192 35.4891 44.378C36.3768 46.0368 37.7934 47.3514 39.5138 48.1127C41.2342 48.8741 43.1597 49.0387 44.9843 48.5803C46.809 48.1219 48.4281 47.0668 49.5844 45.5827C50.7406 44.0986 51.3677 42.2707 51.366 40.3893V7.57681C51.3653 7.29243 51.3 7.01192 51.1749 6.75651C51.0499 6.5011 50.8683 6.27749 50.6441 6.10259Z" fill="white"/>
</g>
<defs>
<clipPath id="clip0_87_5">
<rect width="60" height="60" fill="white" transform="translate(0.740967 0.0767822)"/>
</clipPath>
</defs>
</svg>
