<svg width="60" height="60" viewBox="0 0 60 60" fill="none" xmlns="http://www.w3.org/2000/svg">
<path d="M26.8941 7.50002C29.5024 7.50002 31.9352 9.37885 32.8134 12.3903C33.1358 13.6491 33.2669 14.9106 33.3927 16.1264L33.5107 17.2322C33.9616 20.9227 33.9616 39.0532 33.5107 42.7705L33.3927 43.9166C33.28 45.0734 33.1647 46.2704 32.8317 47.548C31.9535 50.5514 29.6125 52.5 26.9544 52.5C26.8705 52.5 26.7866 52.5 26.6922 52.4973C25.2242 52.4973 23.6277 51.5955 22.7233 50.8091L13.9072 43.4576H9.37986C5.88541 43.4576 3.32683 40.9266 2.86283 37.0106C2.32804 33.0947 2.4329 26.3766 2.86283 22.8176C3.36878 19.111 6.04794 16.5424 9.37986 16.5424H13.9072L22.5555 9.29833C23.5988 8.39114 25.4391 7.49468 26.8941 7.50002ZM48.2252 8.05268C49.2685 7.3119 50.7025 7.58298 51.4181 8.64316C55.3399 14.4164 57.5 22.0041 57.5 29.9998C57.5 38.0008 55.3399 45.5857 51.4181 51.359C50.9908 51.9898 50.2856 52.3682 49.5333 52.3682C49.0667 52.3682 48.6158 52.2233 48.2278 51.9495C47.1897 51.206 46.9328 49.7433 47.651 48.6804C51.0433 43.6828 52.9124 37.0479 52.9124 29.9998C52.9124 22.9543 51.0433 16.3194 47.651 11.3218C46.9328 10.2616 47.1897 8.79615 48.2252 8.05268ZM40.3208 15.646C41.3668 14.9079 42.7955 15.1736 43.5164 16.2365C46.0488 19.9672 47.446 24.8548 47.446 30C47.446 35.1453 46.0488 40.0328 43.5164 43.7636C43.0865 44.3943 42.3839 44.7728 41.6316 44.7728C41.1649 44.7728 40.7114 44.6278 40.3234 44.3541C39.2853 43.6106 39.0284 42.1451 39.7493 41.0849C41.7548 38.1299 42.8584 34.1924 42.8584 30C42.8584 25.8049 41.7548 21.8702 39.7493 18.9151C39.0284 17.8549 39.2853 16.3895 40.3208 15.646Z" fill="white"/>
</svg>
